High-quality transfer from the original 16mm film, with colour correction supervised by the director. The legendary soundtrack has been newly remastered by Tim Barnes, featuring The Universal Mutant Repertory Company (Loren Standlee, Ziska Baum, Angus MacLise, Raja Samayana, Tony Conrad, Henry Flynt and Jackson MacLow). Contains two new, never-before-released alternative soundtracks to "Invasion" by Sunburned Hand of the Man and Acid Mothers Temple SWR (Tsuyama Altsushi, Yoshida Tatsuya and Kawabata Makoto). And as if this wasnΓÇÖt enough, thereΓÇÖs a director's commentary track by Ira Cohen.

Upped by marx in KG - thanks

General
Complete name : The Invasion of Thunderbolt Pagoda (1968).avi
Format : AVI
Format/Info : Audio Video Interleave
File size : 518 MiB
Duration : 30mn 46s
Overall bit rate : 2 355 Kbps
Writing application : VirtualDubMod 1.5.10.2 (build 2540/release)
Writing library : VirtualDubMod build 2540/release

Video
ID : 0
Format : MPEG-4 Visual
Format profile : Advanced Simple@L5
Format settings, BVOP : 1
Format settings, QPel : No
Format settings, GMC : No warppoints
Format settings, Matrix : Default (MPEG)
Codec ID : XVID
Codec ID/Hint : XviD
Duration : 30mn 46s
Bit rate : 1 627 Kbps
Width : 640 pixels
Height : 480 pixels
Display aspect ratio : 4:3
Frame rate : 23.976 fps
Color space : YUV
Chroma subsampling : 4:2:0
Bit depth : 8 bits
Scan type : Progressive
Compression mode : Lossy
Bits/(Pixel*Frame) : 0.221
Stream size : 358 MiB (69%)
Writing library : XviD 1.2.1 (UTC 2008-12-04)

Audio #1
ID : 1
Format : MPEG Audio
Format version : Version 1
Format profile : Layer 3
Codec ID : 55
Codec ID/Hint : MP3
Duration : 30mn 46s
Bit rate mode : Constant
Bit rate : 192 Kbps
Channel(s) : 2 channels
Sampling rate : 48.0 KHz
Compression mode : Lossy
Stream size : 42.3 MiB (8%)
Alignment : Split accross interleaves
Interleave, duration : 42 ms (1.00 video frame)
Interleave, preload duration : 500 ms

Audio #2
ID : 2
Format : MPEG Audio
Format version : Version 1
Format profile : Layer 3
Mode : Joint stereo
Codec ID : 55
Codec ID/Hint : MP3
Duration : 30mn 44s
Bit rate mode : Constant
Bit rate : 128 Kbps
Channel(s) : 2 channels
Sampling rate : 48.0 KHz
Compression mode : Lossy
Stream size : 28.1 MiB (5%)
Alignment : Split accross interleaves
Interleave, duration : 42 ms (1.00 video frame)
Interleave, preload duration : 500 ms

Audio #3
ID : 3
Format : MPEG Audio
Format version : Version 1
Format profile : Layer 3
Codec ID : 55
Codec ID/Hint : MP3
Duration : 30mn 46s
Bit rate mode : Constant
Bit rate : 192 Kbps
Channel(s) : 2 channels
Sampling rate : 48.0 KHz
Compression mode : Lossy
Stream size : 42.3 MiB (8%)
Alignment : Split accross interleaves
Interleave, duration : 42 ms (1.00 video frame)
Interleave, preload duration : 500 ms

Audio #4
ID : 4
Format : MPEG Audio
Format version : Version 1
Format profile : Layer 3
Codec ID : 55
Codec ID/Hint : MP3
Duration : 30mn 46s
Bit rate mode : Constant
Bit rate : 192 Kbps
Channel(s) : 2 channels
Sampling rate : 48.0 KHz
Compression mode : Lossy
Stream size : 42.3 MiB (8%)
Alignment : Split accross interleaves
Interleave, duration : 42 ms (1.00 video frame)
Interleave, preload duration : 500 ms